<svg width="40" height="40" viewBox="0 0 40 40" fill="none" xmlns="http://www.w3.org/2000/svg">
<g clip-path="url(#clip0_194_72)">
<path d="M33.3334 1.66667V6.66667H38.3334V10H33.3334V15H30V10H25V6.66667H30V1.66667H33.3334ZM20 21.6667C21.8334 21.6667 23.3334 20.1667 23.3334 18.3333C23.3334 16.5 21.8334 15 20 15C18.1667 15 16.6667 16.5 16.6667 18.3333C16.6667 20.1667 18.1667 21.6667 20 21.6667ZM23.3334 5.41667V11.6667H28.3334V16.6667H33.2C33.2834 17.3167 33.3334 17.9833 33.3334 18.6667C33.3334 24.2 28.8834 30.75 20 38.3333C11.1167 30.75 6.66669 24.2 6.66669 18.6667C6.66669 10.3667 13 5.00001 20 5.00001C21.1334 5.00001 22.25 5.13334 23.3334 5.41667Z" fill="black"/>
</g>
<defs>
<clipPath id="clip0_194_72">
<rect width="40" height="40" fill="white"/>
</clipPath>
</defs>
</svg>
