<svg width="40" height="40" viewBox="0 0 40 40" fill="none" xmlns="http://www.w3.org/2000/svg">
<g clip-path="url(#clip0_194_69)">
<path d="M35.6833 19.3L20.6833 4.3C20.0833 3.7 19.25 3.33334 18.3333 3.33334H6.66665C4.83331 3.33334 3.33331 4.83334 3.33331 6.66667V18.3333C3.33331 19.25 3.69998 20.0833 4.31665 20.7L19.3166 35.7C19.9166 36.3 20.75 36.6667 21.6666 36.6667C22.5833 36.6667 23.4166 36.3 24.0166 35.6833L35.6833 24.0167C36.3 23.4167 36.6666 22.5833 36.6666 21.6667C36.6666 20.75 36.2833 19.9 35.6833 19.3ZM9.16665 11.6667C7.78331 11.6667 6.66665 10.55 6.66665 9.16667C6.66665 7.78334 7.78331 6.66667 9.16665 6.66667C10.55 6.66667 11.6666 7.78334 11.6666 9.16667C11.6666 10.55 10.55 11.6667 9.16665 11.6667Z" fill="black"/>
</g>
<defs>
<clipPath id="clip0_194_69">
<rect width="40" height="40" fill="white"/>
</clipPath>
</defs>
</svg>
