<svg width="40" height="40" viewBox="0 0 40 40" fill="none" xmlns="http://www.w3.org/2000/svg">
<g clip-path="url(#clip0_194_75)">
<path d="M20 13.3333C16.3167 13.3333 13.3334 16.3167 13.3334 20C13.3334 23.6833 16.3167 26.6667 20 26.6667C23.6834 26.6667 26.6667 23.6833 26.6667 20C26.6667 16.3167 23.6834 13.3333 20 13.3333ZM34.9 18.3333C34.1334 11.3833 28.6167 5.86666 21.6667 5.09999V1.66666H18.3334V5.09999C11.3834 5.86666 5.86669 11.3833 5.10002 18.3333H1.66669V21.6667H5.10002C5.86669 28.6167 11.3834 34.1333 18.3334 34.9V38.3333H21.6667V34.9C28.6167 34.1333 34.1334 28.6167 34.9 21.6667H38.3334V18.3333H34.9V18.3333ZM20 31.6667C13.55 31.6667 8.33335 26.45 8.33335 20C8.33335 13.55 13.55 8.33332 20 8.33332C26.45 8.33332 31.6667 13.55 31.6667 20C31.6667 26.45 26.45 31.6667 20 31.6667Z" fill="black"/>
</g>
<defs>
<clipPath id="clip0_194_75">
<rect width="40" height="40" fill="white"/>
</clipPath>
</defs>
</svg>
