<svg width="40" height="40" viewBox="0 0 40 40" fill="none" xmlns="http://www.w3.org/2000/svg">
<g clip-path="url(#clip0_194_39)">
<path d="M27.4833 25.8333V22.9167L23.3333 27.0833L27.4833 31.25V28.3333H36.6666V25.8333H27.4833ZM32.5166 32.9167H23.3333V35.4167H32.5166V38.3333L36.6666 34.1667L32.5166 30V32.9167ZM15.8333 9.16667C17.6666 9.16667 19.1666 7.66667 19.1666 5.83333C19.1666 4 17.6666 2.5 15.8333 2.5C14 2.5 12.5 4 12.5 5.83333C12.5 7.66667 14 9.16667 15.8333 9.16667ZM9.58331 14.8333L4.99998 38.3333H8.49998L11.4166 25L15 28.3333V38.3333H18.3333V25.75L14.9166 22.3333L15.9166 17.3333C18.0833 20 21.3333 21.6667 25 21.6667V18.3333C21.9166 18.3333 19.25 16.6667 17.75 14.25L16.1666 11.5833C15.5833 10.5833 14.5 10 13.3333 10C12.9166 10 12.5 10.0833 12.0833 10.25L3.33331 13.8333V21.6667H6.66665V16.0833L9.58331 14.8333Z" fill="black"/>
</g>
<defs>
<clipPath id="clip0_194_39">
<rect width="40" height="40" fill="white"/>
</clipPath>
</defs>
</svg>
